<?xml version="1.0" encoding="UTF-8"?>
<svg xmlns="http://www.w3.org/2000/svg" width="1160" height="520" viewBox="0 0 1160 520">
<defs>
<clipPath id="spatial"><rect x="125" y="130" width="410" height="300"/></clipPath>
<clipPath id="temporal"><rect x="675" y="130" width="410" height="300"/></clipPath>
<style>
text { font-family: Helvetica, Arial, sans-serif; fill: #222; }
.panel-title { font-size: 17px; font-weight: 600; }
.subtitle { font-size: 11.5px; fill: #555; }
.legend { font-size: 11.5px; }
.tick { font-size: 11px; fill: #444; }
.axis-label { font-size: 13px; }
.grid { stroke: #d8d8d8; stroke-width: 1; }
.grid.vertical { stroke: #e5e5e5; }
.axis { stroke: #333; stroke-width: 1.2; }
.series { stroke-width: 2.2; stroke-linecap: round; stroke-linejoin: round; }
.reference { stroke: #555; stroke-width: 1.8; stroke-dasharray: 7 5; }
</style>
</defs>
<rect width="1160" height="520" fill="white"/>
<text x="305.0" y="55.0" class="panel-title" text-anchor="middle">Spatial refinement</text>
<text x="305.0" y="78.0" class="subtitle" text-anchor="middle">Δt = 0.0001;  T = 0.0016</text>
<line x1="95.0" y1="108" x2="119.0" y2="108" stroke="#1f77b4" class="series"/>
<circle cx="107.0" cy="108.0" r="4.2" fill="white" stroke="#1f77b4" stroke-width="2.1"/>
<text x="126.0" y="112.0" class="legend" text-anchor="start">u_x</text>
<line x1="200.0" y1="108" x2="224.0" y2="108" stroke="#d55e00" class="series" stroke-dasharray="6 3"/>
<rect x="207.9" y="103.9" width="8.2" height="8.2" fill="white" stroke="#d55e00" stroke-width="2.1"/>
<text x="231.0" y="112.0" class="legend" text-anchor="start">u_y</text>
<line x1="305.0" y1="108" x2="329.0" y2="108" stroke="#009e73" class="series"/>
<polygon points="317.0,103.0 322.0,108.0 317.0,113.0 312.0,108.0" fill="white" stroke="#009e73" stroke-width="2.1"/>
<text x="336.0" y="112.0" class="legend" text-anchor="start">u_z</text>
<line x1="410.0" y1="108" x2="434.0" y2="108" class="reference"/>
<text x="441.0" y="112.0" class="legend" text-anchor="start">O(N⁻²)</text>
<line x1="125" y1="239.5" x2="535" y2="239.5" class="grid"/>
<text x="115.0" y="243.5" class="tick" text-anchor="end">10⁻⁴</text>
<line x1="150.2" y1="130" x2="150.2" y2="430" class="grid vertical"/>
<text x="150.2" y="453.0" class="tick" text-anchor="middle">48</text>
<line x1="255.7" y1="130" x2="255.7" y2="430" class="grid vertical"/>
<text x="255.7" y="453.0" class="tick" text-anchor="middle">64</text>
<line x1="404.3" y1="130" x2="404.3" y2="430" class="grid vertical"/>
<text x="404.3" y="453.0" class="tick" text-anchor="middle">96</text>
<line x1="509.8" y1="130" x2="509.8" y2="430" class="grid vertical"/>
<text x="509.8" y="453.0" class="tick" text-anchor="middle">128</text>
<line x1="125" y1="430" x2="535" y2="430" class="axis"/>
<line x1="125" y1="130" x2="125" y2="430" class="axis"/>
<g clip-path="url(#spatial)">
<polyline points="150.2,224.0 255.7,265.2 404.3,334.8 509.8,388.5" fill="none" stroke="#1f77b4" class="series"/>
<circle cx="150.2" cy="224.0" r="4.2" fill="white" stroke="#1f77b4" stroke-width="2.1"/>
<circle cx="255.7" cy="265.2" r="4.2" fill="white" stroke="#1f77b4" stroke-width="2.1"/>
<circle cx="404.3" cy="334.8" r="4.2" fill="white" stroke="#1f77b4" stroke-width="2.1"/>
<circle cx="509.8" cy="388.5" r="4.2" fill="white" stroke="#1f77b4" stroke-width="2.1"/>
<polyline points="150.2,224.5 255.7,265.6 404.3,335.2 509.8,388.9" fill="none" stroke="#d55e00" class="series" stroke-dasharray="6 3"/>
<rect x="146.1" y="220.4" width="8.2" height="8.2" fill="white" stroke="#d55e00" stroke-width="2.1"/>
<rect x="251.6" y="261.5" width="8.2" height="8.2" fill="white" stroke="#d55e00" stroke-width="2.1"/>
<rect x="400.2" y="331.1" width="8.2" height="8.2" fill="white" stroke="#d55e00" stroke-width="2.1"/>
<rect x="505.7" y="384.8" width="8.2" height="8.2" fill="white" stroke="#d55e00" stroke-width="2.1"/>
<polyline points="150.2,155.0 255.7,192.5 404.3,259.0 509.8,311.6" fill="none" stroke="#009e73" class="series"/>
<polygon points="150.2,150.0 155.2,155.0 150.2,160.0 145.2,155.0" fill="white" stroke="#009e73" stroke-width="2.1"/>
<polygon points="255.7,187.5 260.7,192.5 255.7,197.5 250.7,192.5" fill="white" stroke="#009e73" stroke-width="2.1"/>
<polygon points="404.3,254.0 409.3,259.0 404.3,264.0 399.3,259.0" fill="white" stroke="#009e73" stroke-width="2.1"/>
<polygon points="509.8,306.6 514.8,311.6 509.8,316.6 504.8,311.6" fill="white" stroke="#009e73" stroke-width="2.1"/>
<polyline points="150.2,213.4 255.7,269.6 404.3,348.8 509.8,405.0" fill="none" class="reference"/>
</g>
<text x="330.0" y="486.0" class="axis-label" text-anchor="middle">grid size  N</text>
<text x="72.0" y="280.0" class="axis-label" text-anchor="middle" transform="rotate(-90 72.0 280.0)">L² error</text>
<text x="855.0" y="55.0" class="panel-title" text-anchor="middle">Temporal refinement</text>
<text x="855.0" y="78.0" class="subtitle" text-anchor="middle">N = 96;  T = 1</text>
<line x1="645.0" y1="108" x2="669.0" y2="108" stroke="#1f77b4" class="series"/>
<circle cx="657.0" cy="108.0" r="4.2" fill="white" stroke="#1f77b4" stroke-width="2.1"/>
<text x="676.0" y="112.0" class="legend" text-anchor="start">u_x</text>
<line x1="750.0" y1="108" x2="774.0" y2="108" stroke="#d55e00" class="series" stroke-dasharray="6 3"/>
<rect x="757.9" y="103.9" width="8.2" height="8.2" fill="white" stroke="#d55e00" stroke-width="2.1"/>
<text x="781.0" y="112.0" class="legend" text-anchor="start">u_y</text>
<line x1="855.0" y1="108" x2="879.0" y2="108" stroke="#009e73" class="series"/>
<polygon points="867.0,103.0 872.0,108.0 867.0,113.0 862.0,108.0" fill="white" stroke="#009e73" stroke-width="2.1"/>
<text x="886.0" y="112.0" class="legend" text-anchor="start">u_z</text>
<line x1="960.0" y1="108" x2="984.0" y2="108" class="reference"/>
<text x="991.0" y="112.0" class="legend" text-anchor="start">O(Δt²)</text>
<line x1="675" y1="341.0" x2="1085" y2="341.0" class="grid"/>
<text x="665.0" y="345.0" class="tick" text-anchor="end">10⁻³</text>
<line x1="675" y1="219.9" x2="1085" y2="219.9" class="grid"/>
<text x="665.0" y="223.9" class="tick" text-anchor="end">10⁻²</text>
<line x1="1059.8" y1="130" x2="1059.8" y2="430" class="grid vertical"/>
<text x="1059.8" y="453.0" class="tick" text-anchor="middle">0.00625</text>
<line x1="939.9" y1="130" x2="939.9" y2="430" class="grid vertical"/>
<text x="939.9" y="453.0" class="tick" text-anchor="middle">0.0125</text>
<line x1="820.1" y1="130" x2="820.1" y2="430" class="grid vertical"/>
<text x="820.1" y="453.0" class="tick" text-anchor="middle">0.025</text>
<line x1="700.2" y1="130" x2="700.2" y2="430" class="grid vertical"/>
<text x="700.2" y="453.0" class="tick" text-anchor="middle">0.05</text>
<line x1="675" y1="430" x2="1085" y2="430" class="axis"/>
<line x1="675" y1="130" x2="675" y2="430" class="axis"/>
<g clip-path="url(#temporal)">
<polyline points="1059.8,371.1 939.9,297.5 820.1,223.8 700.2,155.1" fill="none" stroke="#1f77b4" class="series"/>
<circle cx="1059.8" cy="371.1" r="4.2" fill="white" stroke="#1f77b4" stroke-width="2.1"/>
<circle cx="939.9" cy="297.5" r="4.2" fill="white" stroke="#1f77b4" stroke-width="2.1"/>
<circle cx="820.1" cy="223.8" r="4.2" fill="white" stroke="#1f77b4" stroke-width="2.1"/>
<circle cx="700.2" cy="155.1" r="4.2" fill="white" stroke="#1f77b4" stroke-width="2.1"/>
<polyline points="1059.8,349.8 939.9,297.3 820.1,224.1 700.2,155.2" fill="none" stroke="#d55e00" class="series" stroke-dasharray="6 3"/>
<rect x="1055.7" y="345.7" width="8.2" height="8.2" fill="white" stroke="#d55e00" stroke-width="2.1"/>
<rect x="935.8" y="293.2" width="8.2" height="8.2" fill="white" stroke="#d55e00" stroke-width="2.1"/>
<rect x="816.0" y="220.0" width="8.2" height="8.2" fill="white" stroke="#d55e00" stroke-width="2.1"/>
<rect x="696.1" y="151.1" width="8.2" height="8.2" fill="white" stroke="#d55e00" stroke-width="2.1"/>
<polyline points="1059.8,360.6 939.9,298.5 820.1,224.0 700.2,155.0" fill="none" stroke="#009e73" class="series"/>
<polygon points="1059.8,355.6 1064.8,360.6 1059.8,365.6 1054.8,360.6" fill="white" stroke="#009e73" stroke-width="2.1"/>
<polygon points="939.9,293.5 944.9,298.5 939.9,303.5 934.9,298.5" fill="white" stroke="#009e73" stroke-width="2.1"/>
<polygon points="820.1,219.0 825.1,224.0 820.1,229.0 815.1,224.0" fill="white" stroke="#009e73" stroke-width="2.1"/>
<polygon points="700.2,150.0 705.2,155.0 700.2,160.0 695.2,155.0" fill="white" stroke="#009e73" stroke-width="2.1"/>
<polyline points="1059.8,405.0 939.9,332.1 820.1,259.3 700.2,186.4" fill="none" class="reference"/>
</g>
<text x="880.0" y="486.0" class="axis-label" text-anchor="middle">time step  Δt</text>
<text x="622.0" y="280.0" class="axis-label" text-anchor="middle" transform="rotate(-90 622.0 280.0)">L² error</text>
</svg>
